<?xml version="1.0" ?>

<!DOCTYPE svg  PUBLIC '-//W3C//DTD SVG 1.1//EN'  'http://www.w3.org/Graphics/SVG/1.1/DTD/svg11.dtd'>
<svg fill="#000000" width="800px" height="800px" viewBox="0 0 32 32" style="fill-rule:evenodd;clip-rule:evenodd;stroke-linejoin:round;stroke-miterlimit:2;" version="1.1" xml:space="preserve" xmlns="http://www.w3.org/2000/svg" xmlns:serif="http://www.serif.com/" xmlns:xlink="http://www.w3.org/1999/xlink">

<g transform="matrix(1,0,0,1,-384,-240)">

<g transform="matrix(1.06667,0,0,1.13333,-27.2,-34.7333)">

<path d="M407.063,255.647C407.062,254.672 406.223,253.882 405.188,253.882C402.693,253.882 398.307,253.882 395.812,253.882C394.777,253.882 393.938,254.672 393.937,255.647C393.938,258.359 393.938,263.523 393.938,266.235C393.938,267.21 394.777,268 395.812,268C398.307,268 402.693,268 405.188,268C406.223,268 407.062,267.21 407.063,266.235C407.063,263.523 407.063,258.359 407.063,255.647Z" style="fill:rgb(144,224,239);"/>

</g>

<g transform="matrix(0.875,0,0,0.6,50,101.8)">

<path d="M408,249.5C408,248.119 407.232,247 406.286,247C403.21,247 396.79,247 393.714,247C392.768,247 392,248.119 392,249.5C392,250.881 392.768,252 393.714,252C396.79,252 403.21,252 406.286,252C407.232,252 408,250.881 408,249.5C408,249.5 408,249.5 408,249.5Z" style="fill:rgb(144,224,239);"/>

</g>

<g transform="matrix(0.909091,0,0,0.909091,35,25)">

<path d="M396,247.5C396,244.464 398.464,242 401.5,242C404.536,242 407,244.464 407,247.5L396,247.5" style="fill:rgb(144,224,239);"/>

</g>

<path d="M399.003,244.083C396.491,244.503 394.505,246.488 394.083,249L394,249C392.895,249 392,249.895 392,251L392,252C392,252.511 392.192,252.977 392.507,253.331C392.187,253.808 392,254.382 392,255L392,267C392,268.657 393.343,270 395,270L405,270C406.657,270 408,268.657 408,267L408,255C408,254.382 407.813,253.808 407.493,253.331C407.808,252.977 408,252.511 408,252L408,251C408,249.895 407.105,249 406,249L405.917,249C405.495,246.488 403.509,244.504 400.997,244.083C400.999,244.055 401,244.028 401,244L401,243C401,242.448 400.552,242 400,242C399.448,242 399,242.448 399,243L399,244C399,244.028 399.001,244.055 399.003,244.083ZM394,266L394,267C394,267.552 394.448,268 395,268C395,268 405,268 405,268C405.552,268 406,267.552 406,267L406,255C406,254.448 405.552,254 405,254C405,254 395,254 395,254C394.448,254 394,254.448 394,255L394,256L398,256C398.552,256 399,256.448 399,257C399,257.552 398.552,258 398,258L394,258L394,260L396,260C396.552,260 397,260.448 397,261C397,261.552 396.552,262 396,262L394,262L394,264L398,264C398.552,264 399,264.448 399,265C399,265.552 398.552,266 398,266L394,266ZM394,252L406,252L406,251L394,251L394,252ZM403.874,249C403.429,247.276 401.863,246 400,246C398.138,246 396.571,247.276 396.126,249L403.874,249Z" style="fill:rgb(25,144,167);"/>

</g>

</svg>